# xmcd
#
# Track frame offsets:
#	150
#	17304
#	32068
#	52186
#	73449
#	86588
#	105393
#	136352
#	172493
#	193528
#
# Disc length: 2923 seconds
#
# Revision: 1
# Processed by: cddbd v1.4PL0 Copyright (c) Steve Scherf et al.
# Submitted via: EasyCDDAExtractor 6.0.0.1
#
DISCID=8d0b690a
DTITLE=Van Morrison - Into The Music
DYEAR=1979
DGENRE=Soul
TTITLE0=Bright Side Of The Road
TTITLE1=Full Force Gale
TTITLE2=Stepping Out Queen
TTITLE3=Troubadours
TTITLE4=Rolling Hills
TTITLE5=You Make Me Feel So Free
TTITLE6=Angeliou
TTITLE7=And The Healing Has Begun
TTITLE8=It's All In The Game
TTITLE9=You Know What They're Writing About
EXTD=
EXTT0=
EXTT1=
EXTT2=
EXTT3=
EXTT4=
EXTT5=
EXTT6=
EXTT7=
EXTT8=
EXTT9=
PLAYORDER=
